<?xml version="1.0" encoding="utf-8"?>
<!-- Generator: Adobe Illustrator 24.1.3, SVG Export Plug-In . SVG Version: 6.00 Build 0)  -->
<svg version="1.1" id="Layer_1" xmlns="http://www.w3.org/2000/svg" xmlns:xlink="http://www.w3.org/1999/xlink" x="0px" y="0px"
	 viewBox="0 0 320 320" style="enable-background:new 0 0 320 320;" xml:space="preserve">
<style type="text/css">
	.st0{fill:#90CCF4;}
</style>
<path class="st0" d="M281,76.8L173.3,16.3c-8.2-4.6-18.3-4.6-26.5,0L39,76.8c-8.3,4.6-13.4,13.3-13.4,22.6v121.1
	c0,9.3,5.1,18,13.4,22.6l107.8,60.6c4.1,2.3,8.7,3.5,13.3,3.5s9.2-1.1,13.3-3.5L281,243.2c8.3-4.6,13.4-13.3,13.4-22.6V99.4
	C294.4,90.1,289.3,81.5,281,76.8z M160,236.8c-42.3,0-76.8-34.4-76.8-76.8s34.4-76.8,76.8-76.8c24.2,0,46.6,11.2,61.1,30.3l-28,16.2
	c-8.4-9.2-20.4-14.6-33-14.6c-24.7,0-44.8,20.1-44.8,44.8s20.1,44.8,44.8,44.8c12.6,0,24.6-5.4,33-14.6l28,16.2
	C206.6,225.6,184.2,236.8,160,236.8z M236.8,166.4H224v12.8h-12.8v-12.8h-12.8v-12.8h12.8v-12.8H224v12.8h12.8V166.4z M281.6,166.4
	h-12.8v12.8H256v-12.8h-12.8v-12.8H256v-12.8h12.8v12.8h12.8V166.4z"/>
</svg>
