<?xml version="1.0" encoding="utf-8"?>
<!-- Generator: Adobe Illustrator 24.1.3, SVG Export Plug-In . SVG Version: 6.00 Build 0)  -->
<svg version="1.1" id="Capa_1" xmlns="http://www.w3.org/2000/svg" xmlns:xlink="http://www.w3.org/1999/xlink" x="0px" y="0px"
	 viewBox="0 0 512 512" style="enable-background:new 0 0 512 512;" xml:space="preserve">
<style type="text/css">
	.st0{fill:#FFCCBC;}
	.st1{fill:#FFDBCC;}
	.st2{fill:#F78888;}
</style>
<path class="st0" d="M501.3,96v362.7c0,23.6-19.1,42.7-42.7,42.7H53.3c-23.6,0-42.7-19.1-42.7-42.7V96H501.3z"/>
<path class="st0" d="M501.3,53.3V96H10.7V53.3c0-23.6,19.1-42.7,42.7-42.7h405.3C482.2,10.7,501.3,29.8,501.3,53.3z"/>
<path class="st1" d="M458.7,149.3V448c0,5.9-4.8,10.7-10.7,10.7H64c-5.9,0-10.7-4.8-10.7-10.7V138.7H448
	C453.9,138.7,458.7,143.4,458.7,149.3z"/>
<g>
	<path class="st2" d="M458.7,0H53.3C23.9,0,0,23.9,0,53.3v405.3C0,488.1,23.9,512,53.3,512h405.3c29.4,0,53.3-23.9,53.3-53.3V53.3
		C512,23.9,488.1,0,458.7,0z M490.7,458.7c0,17.7-14.3,32-32,32H53.3c-17.7,0-32-14.3-32-32V53.3c0-17.7,14.3-32,32-32h405.3
		c17.7,0,32,14.3,32,32L490.7,458.7L490.7,458.7z"/>
	<path class="st2" d="M42.7,85.3h426.7v21.3H42.7V85.3z"/>
	<path class="st2" d="M53.3,42.7h21.3V64H53.3V42.7z"/>
	<path class="st2" d="M96,42.7h21.3V64H96V42.7z"/>
	<path class="st2" d="M437.3,42.7h21.3V64h-21.3V42.7z"/>
	<path class="st2" d="M448,128H138.7v21.3H448V448H64V256H42.7v192c0,11.8,9.6,21.3,21.3,21.3h384c11.8,0,21.3-9.6,21.3-21.3V149.3
		C469.3,137.6,459.8,128,448,128z"/>
	<path class="st2" d="M71.5,231.5l42.7-42.7c4.2-4.2,4.2-10.9,0-15.1l-42.7-42.7l-15.1,15.1l35.1,35.1l-35.1,35.1L71.5,231.5z"/>
	<path class="st2" d="M128,202.7h64V224h-64V202.7z"/>
</g>
</svg>
